<?xml version="1.0" standalone="no"?>
<!DOCTYPE svg PUBLIC "-//W3C//DTD SVG 20010904//EN"
 "http://www.w3.org/TR/2001/REC-SVG-20010904/DTD/svg10.dtd">
<svg version="1.0" xmlns="http://www.w3.org/2000/svg"
 width="768.000000pt" height="793.000000pt" viewBox="0 0 768.000000 793.000000"
 preserveAspectRatio="xMidYMid meet">

<g transform="translate(0.000000,793.000000) scale(0.100000,-0.100000)"
fill="#000000" stroke="none">
<path d="M3620 7800 c-924 -55 -1782 -431 -2446 -1073 -571 -552 -952 -1252
-1103 -2031 -51 -264 -65 -421 -65 -731 0 -310 14 -467 65 -731 253 -1303
1159 -2382 2399 -2857 635 -243 1346 -312 2027 -197 1080 184 2060 853 2630
1799 285 473 459 985 530 1561 24 203 24 647 0 850 -60 485 -180 889 -388
1300 -195 387 -405 676 -714 986 -363 364 -734 617 -1205 821 -519 226 -1156
337 -1730 303z m2038 -2339 c18 -12 42 -41 54 -64 45 -86 48 -71 -301 -1712
-176 -830 -328 -1530 -337 -1554 -39 -104 -122 -154 -219 -132 -68 16 -85 27
-291 178 -98 73 -313 232 -478 353 l-298 220 -249 -242 c-252 -245 -319 -298
-380 -298 -29 0 -30 0 -24 48 3 26 19 245 35 487 29 422 32 441 53 461 12 12
164 149 337 305 304 274 866 782 1252 1131 102 93 189 176 193 186 6 16 -18
42 -39 42 -40 0 -191 -91 -1178 -713 -607 -381 -1109 -697 -1116 -701 -13 -8
-961 284 -1022 314 -132 67 -110 172 55 253 42 21 1559 608 3350 1297 226 87
417 160 425 163 8 4 44 5 80 4 50 -2 73 -8 98 -26z"/>
</g>
</svg>
